<?xml version="1.0" encoding="UTF-8"?>
<svg id="Layer_2" data-name="Layer 2" xmlns="http://www.w3.org/2000/svg" viewBox="0 0 348.9 356.82">
  <defs>
    <style>
      .cls-1 {
        fill: #0a330a;
      }

      .cls-1, .cls-2 {
        stroke-width: 0px;
      }

      .cls-2 {
        fill: none;
      }
    </style>
  </defs>
  <g id="Layer_1-2" data-name="Layer 1">
    <g>
      <rect class="cls-1" x="194.79" y="261.76" width="168.1" height="50" rx="17.01" ry="17.01" transform="translate(284.44 -113.18) rotate(45)"/>
      <circle class="cls-2" cx="146.7" cy="146.7" r="99.5"/>
      <path class="cls-1" d="m293.4,146.7C293.4,65.68,227.72,0,146.7,0S0,65.68,0,146.7s65.68,146.7,146.7,146.7c24.85,0,48.25-6.19,68.75-17.09l.07.09s0,0,0,0l-.07-.1c6.42-3.71,13.54-8.34,20.96-14.1,7.28-5.66,13.44-11.31,18.56-16.53h0c23.86-26.09,38.43-60.83,38.43-98.98Zm-146.7,99.5c-54.95,0-99.5-44.55-99.5-99.5s44.55-99.5,99.5-99.5,99.5,44.55,99.5,99.5-44.55,99.5-99.5,99.5Z"/>
      <polygon class="cls-1" points="254.97 245.68 254.97 245.68 254.97 245.68 254.97 245.68"/>
    </g>
  </g>
</svg>